<svg width="603" height="17" viewBox="0 0 603 17" fill="none" xmlns="http://www.w3.org/2000/svg">
<path d="M1.82405 10.8801H5.58405V12.3521H4.88758e-05V1.23205H1.82405V10.8801ZM10.9334 12.4961C10.1014 12.4961 9.34942 12.3094 8.67742 11.9361C8.00542 11.5521 7.47742 11.0187 7.09342 10.3361C6.70942 9.64272 6.51742 8.84272 6.51742 7.93605C6.51742 7.04005 6.71476 6.24538 7.10942 5.55205C7.50409 4.85872 8.04276 4.32538 8.72542 3.95205C9.40809 3.57872 10.1708 3.39205 11.0134 3.39205C11.8561 3.39205 12.6188 3.57872 13.3014 3.95205C13.9841 4.32538 14.5228 4.85872 14.9174 5.55205C15.3121 6.24538 15.5094 7.04005 15.5094 7.93605C15.5094 8.83205 15.3068 9.62672 14.9014 10.3201C14.4961 11.0134 13.9414 11.5521 13.2374 11.9361C12.5441 12.3094 11.7761 12.4961 10.9334 12.4961ZM10.9334 10.9121C11.4028 10.9121 11.8401 10.8001 12.2454 10.5761C12.6614 10.3521 12.9974 10.0161 13.2534 9.56805C13.5094 9.12005 13.6374 8.57605 13.6374 7.93605C13.6374 7.29605 13.5148 6.75738 13.2694 6.32005C13.0241 5.87205 12.6988 5.53605 12.2934 5.31205C11.8881 5.08805 11.4508 4.97605 10.9814 4.97605C10.5121 4.97605 10.0748 5.08805 9.66942 5.31205C9.27476 5.53605 8.96009 5.87205 8.72542 6.32005C8.49076 6.75738 8.37342 7.29605 8.37342 7.93605C8.37342 8.88538 8.61342 9.62138 9.09342 10.1441C9.58409 10.6561 10.1974 10.9121 10.9334 10.9121ZM19.1365 4.81605C19.4032 4.36805 19.7552 4.02138 20.1925 3.77605C20.6405 3.52005 21.1685 3.39205 21.7765 3.39205V5.28005H21.3125C20.5979 5.28005 20.0539 5.46138 19.6805 5.82405C19.3179 6.18672 19.1365 6.81605 19.1365 7.71205V12.3521H17.3125V3.53605H19.1365V4.81605ZM31.5332 7.72805C31.5332 8.05872 31.5118 8.35738 31.4692 8.62405H24.7332C24.7865 9.32805 25.0478 9.89338 25.5172 10.3201C25.9865 10.7467 26.5625 10.9601 27.2452 10.9601C28.2265 10.9601 28.9198 10.5494 29.3252 9.72805H31.2932C31.0265 10.5387 30.5412 11.2054 29.8372 11.7281C29.1438 12.2401 28.2798 12.4961 27.2452 12.4961C26.4025 12.4961 25.6452 12.3094 24.9732 11.9361C24.3118 11.5521 23.7892 11.0187 23.4052 10.3361C23.0318 9.64272 22.8452 8.84272 22.8452 7.93605C22.8452 7.02938 23.0265 6.23472 23.3892 5.55205C23.7625 4.85872 24.2798 4.32538 24.9412 3.95205C25.6132 3.57872 26.3812 3.39205 27.2452 3.39205C28.0772 3.39205 28.8185 3.57338 29.4692 3.93605C30.1198 4.29872 30.6265 4.81072 30.9892 5.47205C31.3518 6.12272 31.5332 6.87472 31.5332 7.72805ZM29.6292 7.15205C29.6185 6.48005 29.3785 5.94138 28.9092 5.53605C28.4398 5.13072 27.8585 4.92805 27.1652 4.92805C26.5358 4.92805 25.9972 5.13072 25.5492 5.53605C25.1012 5.93072 24.8345 6.46938 24.7492 7.15205H29.6292ZM44.0002 3.39205C44.6935 3.39205 45.3122 3.53605 45.8562 3.82405C46.4108 4.11205 46.8428 4.53872 47.1522 5.10405C47.4722 5.66938 47.6322 6.35205 47.6322 7.15205V12.3521H45.8242V7.42405C45.8242 6.63472 45.6268 6.03205 45.2322 5.61605C44.8375 5.18938 44.2988 4.97605 43.6162 4.97605C42.9335 4.97605 42.3895 5.18938 41.9842 5.61605C41.5895 6.03205 41.3922 6.63472 41.3922 7.42405V12.3521H39.5842V7.42405C39.5842 6.63472 39.3868 6.03205 38.9922 5.61605C38.5975 5.18938 38.0588 4.97605 37.3762 4.97605C36.6935 4.97605 36.1495 5.18938 35.7442 5.61605C35.3495 6.03205 35.1522 6.63472 35.1522 7.42405V12.3521H33.3282V3.53605H35.1522V4.54405C35.4508 4.18138 35.8295 3.89872 36.2882 3.69605C36.7468 3.49338 37.2375 3.39205 37.7602 3.39205C38.4642 3.39205 39.0935 3.54138 39.6482 3.84005C40.2028 4.13872 40.6295 4.57072 40.9282 5.13605C41.1948 4.60272 41.6108 4.18138 42.1762 3.87205C42.7415 3.55205 43.3495 3.39205 44.0002 3.39205ZM55.9334 1.23205V12.3521H54.1094V1.23205H55.9334ZM60.1522 4.83205C60.4615 4.42672 60.8828 4.08538 61.4162 3.80805C61.9495 3.53072 62.5522 3.39205 63.2242 3.39205C63.9922 3.39205 64.6908 3.58405 65.3202 3.96805C65.9602 4.34138 66.4615 4.86938 66.8242 5.55205C67.1868 6.23472 67.3682 7.01872 67.3682 7.90405C67.3682 8.78938 67.1868 9.58405 66.8242 10.2881C66.4615 10.9814 65.9602 11.5254 65.3202 11.9201C64.6908 12.3041 63.9922 12.4961 63.2242 12.4961C62.5522 12.4961 61.9548 12.3627 61.4322 12.0961C60.9095 11.8187 60.4828 11.4774 60.1522 11.0721V16.5441H58.3282V3.53605H60.1522V4.83205ZM65.5122 7.90405C65.5122 7.29605 65.3842 6.77338 65.1282 6.33605C64.8828 5.88805 64.5522 5.55205 64.1362 5.32805C63.7308 5.09338 63.2935 4.97605 62.8242 4.97605C62.3655 4.97605 61.9282 5.09338 61.5122 5.32805C61.1068 5.56272 60.7762 5.90405 60.5202 6.35205C60.2748 6.80005 60.1522 7.32805 60.1522 7.93605C60.1522 8.54405 60.2748 9.07738 60.5202 9.53605C60.7762 9.98405 61.1068 10.3254 61.5122 10.5601C61.9282 10.7947 62.3655 10.9121 62.8242 10.9121C63.2935 10.9121 63.7308 10.7947 64.1362 10.5601C64.5522 10.3147 64.8828 9.96272 65.1282 9.50405C65.3842 9.04538 65.5122 8.51205 65.5122 7.90405ZM72.3719 12.4961C71.6786 12.4961 71.0546 12.3734 70.4999 12.1281C69.9559 11.8721 69.5239 11.5307 69.2039 11.1041C68.8839 10.6667 68.7133 10.1814 68.6919 9.64805H70.5799C70.6119 10.0214 70.7879 10.3361 71.1079 10.5921C71.4386 10.8374 71.8493 10.9601 72.3399 10.9601C72.8519 10.9601 73.2466 10.8641 73.5239 10.6721C73.8119 10.4694 73.9559 10.2134 73.9559 9.90405C73.9559 9.57338 73.7959 9.32805 73.4759 9.16805C73.1666 9.00805 72.6706 8.83205 71.9879 8.64005C71.3266 8.45872 70.7879 8.28272 70.3719 8.11205C69.9559 7.94138 69.5933 7.68005 69.2839 7.32805C68.9853 6.97605 68.8359 6.51205 68.8359 5.93605C68.8359 5.46672 68.9746 5.04005 69.2519 4.65605C69.5293 4.26138 69.9239 3.95205 70.4359 3.72805C70.9586 3.50405 71.5559 3.39205 72.2279 3.39205C73.2306 3.39205 74.0359 3.64805 74.6439 4.16005C75.2626 4.66138 75.5933 5.34938 75.6359 6.22405H73.8119C73.7799 5.82938 73.6199 5.51472 73.3319 5.28005C73.0439 5.04538 72.6546 4.92805 72.1639 4.92805C71.6839 4.92805 71.3159 5.01872 71.0599 5.20005C70.8039 5.38138 70.6759 5.62138 70.6759 5.92005C70.6759 6.15472 70.7613 6.35205 70.9319 6.51205C71.1026 6.67205 71.3106 6.80005 71.5559 6.89605C71.8013 6.98138 72.1639 7.09338 72.6439 7.23205C73.2839 7.40272 73.8066 7.57872 74.2119 7.76005C74.6279 7.93072 74.9853 8.18672 75.2839 8.52805C75.5826 8.86938 75.7373 9.32272 75.7479 9.88805C75.7479 10.3894 75.6093 10.8374 75.3319 11.2321C75.0546 11.6267 74.6599 11.9361 74.1479 12.1601C73.6466 12.3841 73.0546 12.4961 72.3719 12.4961ZM85.7028 3.53605V12.3521H83.8788V11.3121C83.5908 11.6747 83.2121 11.9627 82.7428 12.1761C82.2841 12.3787 81.7935 12.4801 81.2708 12.4801C80.5775 12.4801 79.9535 12.3361 79.3988 12.0481C78.8548 11.7601 78.4228 11.3334 78.1028 10.7681C77.7935 10.2027 77.6388 9.52005 77.6388 8.72005V3.53605H79.4468V8.44805C79.4468 9.23738 79.6441 9.84538 80.0388 10.2721C80.4335 10.6881 80.9721 10.8961 81.6548 10.8961C82.3375 10.8961 82.8761 10.6881 83.2708 10.2721C83.6761 9.84538 83.8788 9.23738 83.8788 8.44805V3.53605H85.7028ZM98.7814 3.39205C99.4748 3.39205 100.093 3.53605 100.637 3.82405C101.192 4.11205 101.624 4.53872 101.933 5.10405C102.253 5.66938 102.413 6.35205 102.413 7.15205V12.3521H100.605V7.42405C100.605 6.63472 100.408 6.03205 100.013 5.61605C99.6188 5.18938 99.0801 4.97605 98.3974 4.97605C97.7148 4.97605 97.1708 5.18938 96.7654 5.61605C96.3708 6.03205 96.1734 6.63472 96.1734 7.42405V12.3521H94.3654V7.42405C94.3654 6.63472 94.1681 6.03205 93.7734 5.61605C93.3788 5.18938 92.8401 4.97605 92.1574 4.97605C91.4748 4.97605 90.9308 5.18938 90.5254 5.61605C90.1308 6.03205 89.9334 6.63472 89.9334 7.42405V12.3521H88.1094V3.53605H89.9334V4.54405C90.2321 4.18138 90.6108 3.89872 91.0694 3.69605C91.5281 3.49338 92.0188 3.39205 92.5414 3.39205C93.2454 3.39205 93.8748 3.54138 94.4294 3.84005C94.9841 4.13872 95.4108 4.57072 95.7094 5.13605C95.9761 4.60272 96.3921 4.18138 96.9574 3.87205C97.5228 3.55205 98.1308 3.39205 98.7814 3.39205ZM109.819 2.36805C109.488 2.36805 109.211 2.25605 108.987 2.03205C108.763 1.80805 108.651 1.53072 108.651 1.20005C108.651 0.869383 108.763 0.59205 108.987 0.368051C109.211 0.14405 109.488 0.0320501 109.819 0.0320501C110.139 0.0320501 110.411 0.14405 110.635 0.368051C110.859 0.59205 110.971 0.869383 110.971 1.20005C110.971 1.53072 110.859 1.80805 110.635 2.03205C110.411 2.25605 110.139 2.36805 109.819 2.36805ZM110.715 3.53605V12.3521H108.891V3.53605H110.715ZM116.309 12.4961C115.616 12.4961 114.992 12.3734 114.437 12.1281C113.893 11.8721 113.461 11.5307 113.141 11.1041C112.821 10.6667 112.651 10.1814 112.629 9.64805H114.517C114.549 10.0214 114.725 10.3361 115.045 10.5921C115.376 10.8374 115.787 10.9601 116.277 10.9601C116.789 10.9601 117.184 10.8641 117.461 10.6721C117.749 10.4694 117.893 10.2134 117.893 9.90405C117.893 9.57338 117.733 9.32805 117.413 9.16805C117.104 9.00805 116.608 8.83205 115.925 8.64005C115.264 8.45872 114.725 8.28272 114.309 8.11205C113.893 7.94138 113.531 7.68005 113.221 7.32805C112.923 6.97605 112.773 6.51205 112.773 5.93605C112.773 5.46672 112.912 5.04005 113.189 4.65605C113.467 4.26138 113.861 3.95205 114.373 3.72805C114.896 3.50405 115.493 3.39205 116.165 3.39205C117.168 3.39205 117.973 3.64805 118.581 4.16005C119.2 4.66138 119.531 5.34938 119.573 6.22405H117.749C117.717 5.82938 117.557 5.51472 117.269 5.28005C116.981 5.04538 116.592 4.92805 116.101 4.92805C115.621 4.92805 115.253 5.01872 114.997 5.20005C114.741 5.38138 114.613 5.62138 114.613 5.92005C114.613 6.15472 114.699 6.35205 114.869 6.51205C115.04 6.67205 115.248 6.80005 115.493 6.89605C115.739 6.98138 116.101 7.09338 116.581 7.23205C117.221 7.40272 117.744 7.57872 118.149 7.76005C118.565 7.93072 118.923 8.18672 119.221 8.52805C119.52 8.86938 119.675 9.32272 119.685 9.88805C119.685 10.3894 119.547 10.8374 119.269 11.2321C118.992 11.6267 118.597 11.9361 118.085 12.1601C117.584 12.3841 116.992 12.4961 116.309 12.4961ZM129.013 12.4961C128.319 12.4961 127.695 12.3734 127.141 12.1281C126.597 11.8721 126.165 11.5307 125.845 11.1041C125.525 10.6667 125.354 10.1814 125.333 9.64805H127.221C127.253 10.0214 127.429 10.3361 127.749 10.5921C128.079 10.8374 128.49 10.9601 128.981 10.9601C129.493 10.9601 129.887 10.8641 130.165 10.6721C130.453 10.4694 130.597 10.2134 130.597 9.90405C130.597 9.57338 130.437 9.32805 130.117 9.16805C129.807 9.00805 129.311 8.83205 128.629 8.64005C127.967 8.45872 127.429 8.28272 127.013 8.11205C126.597 7.94138 126.234 7.68005 125.925 7.32805C125.626 6.97605 125.477 6.51205 125.477 5.93605C125.477 5.46672 125.615 5.04005 125.893 4.65605C126.17 4.26138 126.565 3.95205 127.077 3.72805C127.599 3.50405 128.197 3.39205 128.869 3.39205C129.871 3.39205 130.677 3.64805 131.285 4.16005C131.903 4.66138 132.234 5.34938 132.277 6.22405H130.453C130.421 5.82938 130.261 5.51472 129.973 5.28005C129.685 5.04538 129.295 4.92805 128.805 4.92805C128.325 4.92805 127.957 5.01872 127.701 5.20005C127.445 5.38138 127.317 5.62138 127.317 5.92005C127.317 6.15472 127.402 6.35205 127.573 6.51205C127.743 6.67205 127.951 6.80005 128.197 6.89605C128.442 6.98138 128.805 7.09338 129.285 7.23205C129.925 7.40272 130.447 7.57872 130.853 7.76005C131.269 7.93072 131.626 8.18672 131.925 8.52805C132.223 8.86938 132.378 9.32272 132.389 9.88805C132.389 10.3894 132.25 10.8374 131.973 11.2321C131.695 11.6267 131.301 11.9361 130.789 12.1601C130.287 12.3841 129.695 12.4961 129.013 12.4961ZM135.287 2.36805C134.957 2.36805 134.679 2.25605 134.455 2.03205C134.231 1.80805 134.119 1.53072 134.119 1.20005C134.119 0.869383 134.231 0.59205 134.455 0.368051C134.679 0.14405 134.957 0.0320501 135.287 0.0320501C135.607 0.0320501 135.879 0.14405 136.103 0.368051C136.327 0.59205 136.439 0.869383 136.439 1.20005C136.439 1.53072 136.327 1.80805 136.103 2.03205C135.879 2.25605 135.607 2.36805 135.287 2.36805ZM136.183 3.53605V12.3521H134.359V3.53605H136.183ZM149.25 3.39205C149.944 3.39205 150.562 3.53605 151.106 3.82405C151.661 4.11205 152.093 4.53872 152.402 5.10405C152.722 5.66938 152.882 6.35205 152.882 7.15205V12.3521H151.074V7.42405C151.074 6.63472 150.877 6.03205 150.482 5.61605C150.088 5.18938 149.549 4.97605 148.866 4.97605C148.184 4.97605 147.64 5.18938 147.234 5.61605C146.84 6.03205 146.642 6.63472 146.642 7.42405V12.3521H144.834V7.42405C144.834 6.63472 144.637 6.03205 144.242 5.61605C143.848 5.18938 143.309 4.97605 142.626 4.97605C141.944 4.97605 141.4 5.18938 140.994 5.61605C140.6 6.03205 140.402 6.63472 140.402 7.42405V12.3521H138.578V3.53605H140.402V4.54405C140.701 4.18138 141.08 3.89872 141.538 3.69605C141.997 3.49338 142.488 3.39205 143.01 3.39205C143.714 3.39205 144.344 3.54138 144.898 3.84005C145.453 4.13872 145.88 4.57072 146.178 5.13605C146.445 4.60272 146.861 4.18138 147.426 3.87205C147.992 3.55205 148.6 3.39205 149.25 3.39205ZM157.027 4.83205C157.337 4.42672 157.758 4.08538 158.291 3.80805C158.825 3.53072 159.427 3.39205 160.099 3.39205C160.867 3.39205 161.566 3.58405 162.195 3.96805C162.835 4.34138 163.337 4.86938 163.699 5.55205C164.062 6.23472 164.243 7.01872 164.243 7.90405C164.243 8.78938 164.062 9.58405 163.699 10.2881C163.337 10.9814 162.835 11.5254 162.195 11.9201C161.566 12.3041 160.867 12.4961 160.099 12.4961C159.427 12.4961 158.83 12.3627 158.307 12.0961C157.785 11.8187 157.358 11.4774 157.027 11.0721V16.5441H155.203V3.53605H157.027V4.83205ZM162.387 7.90405C162.387 7.29605 162.259 6.77338 162.003 6.33605C161.758 5.88805 161.427 5.55205 161.011 5.32805C160.606 5.09338 160.169 4.97605 159.699 4.97605C159.241 4.97605 158.803 5.09338 158.387 5.32805C157.982 5.56272 157.651 5.90405 157.395 6.35205C157.15 6.80005 157.027 7.32805 157.027 7.93605C157.027 8.54405 157.15 9.07738 157.395 9.53605C157.651 9.98405 157.982 10.3254 158.387 10.5601C158.803 10.7947 159.241 10.9121 159.699 10.9121C160.169 10.9121 160.606 10.7947 161.011 10.5601C161.427 10.3147 161.758 9.96272 162.003 9.50405C162.259 9.04538 162.387 8.51205 162.387 7.90405ZM167.871 0.512051V12.3521H166.047V0.512051H167.871ZM178.202 3.53605L172.794 16.4961H170.906L172.698 12.2081L169.226 3.53605H171.258L173.738 10.2561L176.314 3.53605H178.202ZM183.126 7.90405C183.126 7.01872 183.308 6.23472 183.67 5.55205C184.044 4.86938 184.545 4.34138 185.174 3.96805C185.814 3.58405 186.524 3.39205 187.302 3.39205C187.878 3.39205 188.444 3.52005 188.998 3.77605C189.564 4.02138 190.012 4.35205 190.342 4.76805V0.512051H192.182V12.3521H190.342V11.0241C190.044 11.4507 189.628 11.8027 189.094 12.0801C188.572 12.3574 187.969 12.4961 187.286 12.4961C186.518 12.4961 185.814 12.3041 185.174 11.9201C184.545 11.5254 184.044 10.9814 183.67 10.2881C183.308 9.58405 183.126 8.78938 183.126 7.90405ZM190.342 7.93605C190.342 7.32805 190.214 6.80005 189.958 6.35205C189.713 5.90405 189.388 5.56272 188.982 5.32805C188.577 5.09338 188.14 4.97605 187.67 4.97605C187.201 4.97605 186.764 5.09338 186.358 5.32805C185.953 5.55205 185.622 5.88805 185.366 6.33605C185.121 6.77338 184.998 7.29605 184.998 7.90405C184.998 8.51205 185.121 9.04538 185.366 9.50405C185.622 9.96272 185.953 10.3147 186.358 10.5601C186.774 10.7947 187.212 10.9121 187.67 10.9121C188.14 10.9121 188.577 10.7947 188.982 10.5601C189.388 10.3254 189.713 9.98405 189.958 9.53605C190.214 9.07738 190.342 8.54405 190.342 7.93605ZM202.562 3.53605V12.3521H200.738V11.3121C200.45 11.6747 200.072 11.9627 199.602 12.1761C199.144 12.3787 198.653 12.4801 198.13 12.4801C197.437 12.4801 196.813 12.3361 196.258 12.0481C195.714 11.7601 195.282 11.3334 194.962 10.7681C194.653 10.2027 194.498 9.52005 194.498 8.72005V3.53605H196.306V8.44805C196.306 9.23738 196.504 9.84538 196.898 10.2721C197.293 10.6881 197.832 10.8961 198.514 10.8961C199.197 10.8961 199.736 10.6881 200.13 10.2721C200.536 9.84538 200.738 9.23738 200.738 8.44805V3.53605H202.562ZM215.641 3.39205C216.334 3.39205 216.953 3.53605 217.497 3.82405C218.051 4.11205 218.483 4.53872 218.793 5.10405C219.113 5.66938 219.273 6.35205 219.273 7.15205V12.3521H217.465V7.42405C217.465 6.63472 217.267 6.03205 216.873 5.61605C216.478 5.18938 215.939 4.97605 215.257 4.97605C214.574 4.97605 214.03 5.18938 213.625 5.61605C213.23 6.03205 213.033 6.63472 213.033 7.42405V12.3521H211.225V7.42405C211.225 6.63472 211.027 6.03205 210.633 5.61605C210.238 5.18938 209.699 4.97605 209.017 4.97605C208.334 4.97605 207.79 5.18938 207.385 5.61605C206.99 6.03205 206.793 6.63472 206.793 7.42405V12.3521H204.969V3.53605H206.793V4.54405C207.091 4.18138 207.47 3.89872 207.929 3.69605C208.387 3.49338 208.878 3.39205 209.401 3.39205C210.105 3.39205 210.734 3.54138 211.289 3.84005C211.843 4.13872 212.27 4.57072 212.569 5.13605C212.835 4.60272 213.251 4.18138 213.817 3.87205C214.382 3.55205 214.99 3.39205 215.641 3.39205ZM232.266 3.39205C232.959 3.39205 233.578 3.53605 234.122 3.82405C234.676 4.11205 235.108 4.53872 235.418 5.10405C235.738 5.66938 235.898 6.35205 235.898 7.15205V12.3521H234.09V7.42405C234.09 6.63472 233.892 6.03205 233.498 5.61605C233.103 5.18938 232.564 4.97605 231.882 4.97605C231.199 4.97605 230.655 5.18938 230.25 5.61605C229.855 6.03205 229.658 6.63472 229.658 7.42405V12.3521H227.85V7.42405C227.85 6.63472 227.652 6.03205 227.258 5.61605C226.863 5.18938 226.324 4.97605 225.642 4.97605C224.959 4.97605 224.415 5.18938 224.01 5.61605C223.615 6.03205 223.418 6.63472 223.418 7.42405V12.3521H221.594V3.53605H223.418V4.54405C223.716 4.18138 224.095 3.89872 224.554 3.69605C225.012 3.49338 225.503 3.39205 226.026 3.39205C226.73 3.39205 227.359 3.54138 227.914 3.84005C228.468 4.13872 228.895 4.57072 229.194 5.13605C229.46 4.60272 229.876 4.18138 230.442 3.87205C231.007 3.55205 231.615 3.39205 232.266 3.39205ZM246.155 3.53605L240.747 16.4961H238.859L240.651 12.2081L237.179 3.53605H239.211L241.691 10.2561L244.267 3.53605H246.155ZM253.816 5.02405V9.90405C253.816 10.2347 253.89 10.4747 254.04 10.6241C254.2 10.7627 254.466 10.8321 254.84 10.8321H255.96V12.3521H254.52C253.698 12.3521 253.069 12.1601 252.632 11.7761C252.194 11.3921 251.976 10.7681 251.976 9.90405V5.02405H250.936V3.53605H251.976V1.34405H253.816V3.53605H255.96V5.02405H253.816ZM265.721 7.72805C265.721 8.05872 265.699 8.35738 265.657 8.62405H258.921C258.974 9.32805 259.235 9.89338 259.705 10.3201C260.174 10.7467 260.75 10.9601 261.433 10.9601C262.414 10.9601 263.107 10.5494 263.513 9.72805H265.481C265.214 10.5387 264.729 11.2054 264.025 11.7281C263.331 12.2401 262.467 12.4961 261.433 12.4961C260.59 12.4961 259.833 12.3094 259.161 11.9361C258.499 11.5521 257.977 11.0187 257.593 10.3361C257.219 9.64272 257.033 8.84272 257.033 7.93605C257.033 7.02938 257.214 6.23472 257.577 5.55205C257.95 4.85872 258.467 4.32538 259.129 3.95205C259.801 3.57872 260.569 3.39205 261.433 3.39205C262.265 3.39205 263.006 3.57338 263.657 3.93605C264.307 4.29872 264.814 4.81072 265.177 5.47205C265.539 6.12272 265.721 6.87472 265.721 7.72805ZM263.817 7.15205C263.806 6.48005 263.566 5.94138 263.097 5.53605C262.627 5.13072 262.046 4.92805 261.353 4.92805C260.723 4.92805 260.185 5.13072 259.737 5.53605C259.289 5.93072 259.022 6.46938 258.937 7.15205H263.817ZM271.292 7.88805L274.14 12.3521H272.076L270.172 9.36005L268.38 12.3521H266.476L269.324 8.01605L266.476 3.53605H268.54L270.444 6.52805L272.236 3.53605H274.14L271.292 7.88805ZM277.628 5.02405V9.90405C277.628 10.2347 277.703 10.4747 277.852 10.6241C278.012 10.7627 278.279 10.8321 278.652 10.8321H279.772V12.3521H278.332C277.511 12.3521 276.881 12.1601 276.444 11.7761C276.007 11.3921 275.788 10.7681 275.788 9.90405V5.02405H274.748V3.53605H275.788V1.34405H277.628V3.53605H279.772V5.02405H277.628ZM289.433 12.4961C288.601 12.4961 287.849 12.3094 287.177 11.9361C286.505 11.5521 285.977 11.0187 285.593 10.3361C285.209 9.64272 285.017 8.84272 285.017 7.93605C285.017 7.04005 285.215 6.24538 285.609 5.55205C286.004 4.85872 286.543 4.32538 287.225 3.95205C287.908 3.57872 288.671 3.39205 289.513 3.39205C290.356 3.39205 291.119 3.57872 291.801 3.95205C292.484 4.32538 293.023 4.85872 293.417 5.55205C293.812 6.24538 294.009 7.04005 294.009 7.93605C294.009 8.83205 293.807 9.62672 293.401 10.3201C292.996 11.0134 292.441 11.5521 291.737 11.9361C291.044 12.3094 290.276 12.4961 289.433 12.4961ZM289.433 10.9121C289.903 10.9121 290.34 10.8001 290.745 10.5761C291.161 10.3521 291.497 10.0161 291.753 9.56805C292.009 9.12005 292.137 8.57605 292.137 7.93605C292.137 7.29605 292.015 6.75738 291.769 6.32005C291.524 5.87205 291.199 5.53605 290.793 5.31205C290.388 5.08805 289.951 4.97605 289.481 4.97605C289.012 4.97605 288.575 5.08805 288.169 5.31205C287.775 5.53605 287.46 5.87205 287.225 6.32005C286.991 6.75738 286.873 7.29605 286.873 7.93605C286.873 8.88538 287.113 9.62138 287.593 10.1441C288.084 10.6561 288.697 10.9121 289.433 10.9121ZM299.509 5.02405H297.877V12.3521H296.037V5.02405H294.997V3.53605H296.037V2.91205C296.037 1.89872 296.303 1.16272 296.837 0.70405C297.381 0.234717 298.229 5.05447e-05 299.381 5.05447e-05V1.52005C298.826 1.52005 298.437 1.62672 298.213 1.84005C297.989 2.04272 297.877 2.40005 297.877 2.91205V3.53605H299.509V5.02405ZM307.409 5.02405V9.90405C307.409 10.2347 307.484 10.4747 307.633 10.6241C307.793 10.7627 308.06 10.8321 308.433 10.8321H309.553V12.3521H308.113C307.292 12.3521 306.663 12.1601 306.225 11.7761C305.788 11.3921 305.569 10.7681 305.569 9.90405V5.02405H304.529V3.53605H305.569V1.34405H307.409V3.53605H309.553V5.02405H307.409ZM315.794 3.39205C316.466 3.39205 317.064 3.53605 317.586 3.82405C318.12 4.11205 318.536 4.53872 318.834 5.10405C319.144 5.66938 319.298 6.35205 319.298 7.15205V12.3521H317.49V7.42405C317.49 6.63472 317.293 6.03205 316.898 5.61605C316.504 5.18938 315.965 4.97605 315.282 4.97605C314.6 4.97605 314.056 5.18938 313.65 5.61605C313.256 6.03205 313.058 6.63472 313.058 7.42405V12.3521H311.234V0.512051H313.058V4.56005C313.368 4.18672 313.757 3.89872 314.226 3.69605C314.706 3.49338 315.229 3.39205 315.794 3.39205ZM329.705 7.72805C329.705 8.05872 329.684 8.35738 329.641 8.62405H322.905C322.958 9.32805 323.22 9.89338 323.689 10.3201C324.158 10.7467 324.734 10.9601 325.417 10.9601C326.398 10.9601 327.092 10.5494 327.497 9.72805H329.465C329.198 10.5387 328.713 11.2054 328.009 11.7281C327.316 12.2401 326.452 12.4961 325.417 12.4961C324.574 12.4961 323.817 12.3094 323.145 11.9361C322.484 11.5521 321.961 11.0187 321.577 10.3361C321.204 9.64272 321.017 8.84272 321.017 7.93605C321.017 7.02938 321.198 6.23472 321.561 5.55205C321.934 4.85872 322.452 4.32538 323.113 3.95205C323.785 3.57872 324.553 3.39205 325.417 3.39205C326.249 3.39205 326.99 3.57338 327.641 3.93605C328.292 4.29872 328.798 4.81072 329.161 5.47205C329.524 6.12272 329.705 6.87472 329.705 7.72805ZM327.801 7.15205C327.79 6.48005 327.55 5.94138 327.081 5.53605C326.612 5.13072 326.03 4.92805 325.337 4.92805C324.708 4.92805 324.169 5.13072 323.721 5.53605C323.273 5.93072 323.006 6.46938 322.921 7.15205H327.801ZM337.48 4.83205C337.79 4.42672 338.211 4.08538 338.744 3.80805C339.278 3.53072 339.88 3.39205 340.552 3.39205C341.32 3.39205 342.019 3.58405 342.648 3.96805C343.288 4.34138 343.79 4.86938 344.152 5.55205C344.515 6.23472 344.696 7.01872 344.696 7.90405C344.696 8.78938 344.515 9.58405 344.152 10.2881C343.79 10.9814 343.288 11.5254 342.648 11.9201C342.019 12.3041 341.32 12.4961 340.552 12.4961C339.88 12.4961 339.283 12.3627 338.76 12.0961C338.238 11.8187 337.811 11.4774 337.48 11.0721V16.5441H335.656V3.53605H337.48V4.83205ZM342.84 7.90405C342.84 7.29605 342.712 6.77338 342.456 6.33605C342.211 5.88805 341.88 5.55205 341.464 5.32805C341.059 5.09338 340.622 4.97605 340.152 4.97605C339.694 4.97605 339.256 5.09338 338.84 5.32805C338.435 5.56272 338.104 5.90405 337.848 6.35205C337.603 6.80005 337.48 7.32805 337.48 7.93605C337.48 8.54405 337.603 9.07738 337.848 9.53605C338.104 9.98405 338.435 10.3254 338.84 10.5601C339.256 10.7947 339.694 10.9121 340.152 10.9121C340.622 10.9121 341.059 10.7947 341.464 10.5601C341.88 10.3147 342.211 9.96272 342.456 9.50405C342.712 9.04538 342.84 8.51205 342.84 7.90405ZM348.324 4.81605C348.591 4.36805 348.943 4.02138 349.38 3.77605C349.828 3.52005 350.356 3.39205 350.964 3.39205V5.28005H350.5C349.785 5.28005 349.241 5.46138 348.868 5.82405C348.505 6.18672 348.324 6.81605 348.324 7.71205V12.3521H346.5V3.53605H348.324V4.81605ZM353.569 2.36805C353.238 2.36805 352.961 2.25605 352.737 2.03205C352.513 1.80805 352.401 1.53072 352.401 1.20005C352.401 0.869383 352.513 0.59205 352.737 0.368051C352.961 0.14405 353.238 0.0320501 353.569 0.0320501C353.889 0.0320501 354.161 0.14405 354.385 0.368051C354.609 0.59205 354.721 0.869383 354.721 1.20005C354.721 1.53072 354.609 1.80805 354.385 2.03205C354.161 2.25605 353.889 2.36805 353.569 2.36805ZM354.465 3.53605V12.3521H352.641V3.53605H354.465ZM361.307 3.39205C362.001 3.39205 362.619 3.53605 363.163 3.82405C363.718 4.11205 364.15 4.53872 364.459 5.10405C364.769 5.66938 364.923 6.35205 364.923 7.15205V12.3521H363.115V7.42405C363.115 6.63472 362.918 6.03205 362.523 5.61605C362.129 5.18938 361.59 4.97605 360.907 4.97605C360.225 4.97605 359.681 5.18938 359.275 5.61605C358.881 6.03205 358.683 6.63472 358.683 7.42405V12.3521H356.859V3.53605H358.683V4.54405C358.982 4.18138 359.361 3.89872 359.819 3.69605C360.289 3.49338 360.785 3.39205 361.307 3.39205ZM369.378 5.02405V9.90405C369.378 10.2347 369.453 10.4747 369.602 10.6241C369.762 10.7627 370.029 10.8321 370.402 10.8321H371.522V12.3521H370.082C369.261 12.3521 368.631 12.1601 368.194 11.7761C367.757 11.3921 367.538 10.7681 367.538 9.90405V5.02405H366.498V3.53605H367.538V1.34405H369.378V3.53605H371.522V5.02405H369.378ZM374.131 2.36805C373.801 2.36805 373.523 2.25605 373.299 2.03205C373.075 1.80805 372.963 1.53072 372.963 1.20005C372.963 0.869383 373.075 0.59205 373.299 0.368051C373.523 0.14405 373.801 0.0320501 374.131 0.0320501C374.451 0.0320501 374.723 0.14405 374.947 0.368051C375.171 0.59205 375.283 0.869383 375.283 1.20005C375.283 1.53072 375.171 1.80805 374.947 2.03205C374.723 2.25605 374.451 2.36805 374.131 2.36805ZM375.027 3.53605V12.3521H373.203V3.53605H375.027ZM381.87 3.39205C382.563 3.39205 383.182 3.53605 383.726 3.82405C384.281 4.11205 384.713 4.53872 385.022 5.10405C385.331 5.66938 385.486 6.35205 385.486 7.15205V12.3521H383.678V7.42405C383.678 6.63472 383.481 6.03205 383.086 5.61605C382.691 5.18938 382.153 4.97605 381.47 4.97605C380.787 4.97605 380.243 5.18938 379.838 5.61605C379.443 6.03205 379.246 6.63472 379.246 7.42405V12.3521H377.422V3.53605H379.246V4.54405C379.545 4.18138 379.923 3.89872 380.382 3.69605C380.851 3.49338 381.347 3.39205 381.87 3.39205ZM391.365 3.39205C392.047 3.39205 392.65 3.53072 393.173 3.80805C393.706 4.07472 394.122 4.41072 394.421 4.81605V3.53605H396.261V12.4961C396.261 13.3067 396.09 14.0267 395.749 14.6561C395.407 15.2961 394.911 15.7974 394.261 16.1601C393.621 16.5227 392.853 16.7041 391.957 16.7041C390.762 16.7041 389.77 16.4214 388.981 15.8561C388.191 15.3014 387.743 14.5441 387.637 13.5841H389.445C389.583 14.0427 389.877 14.4107 390.325 14.6881C390.783 14.9761 391.327 15.1201 391.957 15.1201C392.693 15.1201 393.285 14.8961 393.733 14.4481C394.191 14.0001 394.421 13.3494 394.421 12.4961V11.0241C394.111 11.4401 393.69 11.7921 393.157 12.0801C392.634 12.3574 392.037 12.4961 391.365 12.4961C390.597 12.4961 389.893 12.3041 389.253 11.9201C388.623 11.5254 388.122 10.9814 387.749 10.2881C387.386 9.58405 387.205 8.78938 387.205 7.90405C387.205 7.01872 387.386 6.23472 387.749 5.55205C388.122 4.86938 388.623 4.34138 389.253 3.96805C389.893 3.58405 390.597 3.39205 391.365 3.39205ZM394.421 7.93605C394.421 7.32805 394.293 6.80005 394.037 6.35205C393.791 5.90405 393.466 5.56272 393.061 5.32805C392.655 5.09338 392.218 4.97605 391.749 4.97605C391.279 4.97605 390.842 5.09338 390.437 5.32805C390.031 5.55205 389.701 5.88805 389.445 6.33605C389.199 6.77338 389.077 7.29605 389.077 7.90405C389.077 8.51205 389.199 9.04538 389.445 9.50405C389.701 9.96272 390.031 10.3147 390.437 10.5601C390.853 10.7947 391.29 10.9121 391.749 10.9121C392.218 10.9121 392.655 10.7947 393.061 10.5601C393.466 10.3254 393.791 9.98405 394.037 9.53605C394.293 9.07738 394.421 8.54405 394.421 7.93605ZM402.205 7.90405C402.205 7.01872 402.386 6.23472 402.749 5.55205C403.122 4.86938 403.623 4.34138 404.253 3.96805C404.893 3.58405 405.597 3.39205 406.365 3.39205C407.058 3.39205 407.661 3.53072 408.173 3.80805C408.695 4.07472 409.111 4.41072 409.421 4.81605V3.53605H411.261V12.3521H409.421V11.0401C409.111 11.4561 408.69 11.8027 408.157 12.0801C407.623 12.3574 407.015 12.4961 406.333 12.4961C405.575 12.4961 404.882 12.3041 404.253 11.9201C403.623 11.5254 403.122 10.9814 402.749 10.2881C402.386 9.58405 402.205 8.78938 402.205 7.90405ZM409.421 7.93605C409.421 7.32805 409.293 6.80005 409.037 6.35205C408.791 5.90405 408.466 5.56272 408.061 5.32805C407.655 5.09338 407.218 4.97605 406.749 4.97605C406.279 4.97605 405.842 5.09338 405.437 5.32805C405.031 5.55205 404.701 5.88805 404.445 6.33605C404.199 6.77338 404.077 7.29605 404.077 7.90405C404.077 8.51205 404.199 9.04538 404.445 9.50405C404.701 9.96272 405.031 10.3147 405.437 10.5601C405.853 10.7947 406.29 10.9121 406.749 10.9121C407.218 10.9121 407.655 10.7947 408.061 10.5601C408.466 10.3254 408.791 9.98405 409.037 9.53605C409.293 9.07738 409.421 8.54405 409.421 7.93605ZM418.104 3.39205C418.798 3.39205 419.416 3.53605 419.96 3.82405C420.515 4.11205 420.947 4.53872 421.256 5.10405C421.566 5.66938 421.72 6.35205 421.72 7.15205V12.3521H419.912V7.42405C419.912 6.63472 419.715 6.03205 419.32 5.61605C418.926 5.18938 418.387 4.97605 417.704 4.97605C417.022 4.97605 416.478 5.18938 416.072 5.61605C415.678 6.03205 415.48 6.63472 415.48 7.42405V12.3521H413.656V3.53605H415.48V4.54405C415.779 4.18138 416.158 3.89872 416.616 3.69605C417.086 3.49338 417.582 3.39205 418.104 3.39205ZM423.439 7.90405C423.439 7.01872 423.62 6.23472 423.983 5.55205C424.356 4.86938 424.858 4.34138 425.487 3.96805C426.127 3.58405 426.836 3.39205 427.615 3.39205C428.191 3.39205 428.756 3.52005 429.311 3.77605C429.876 4.02138 430.324 4.35205 430.655 4.76805V0.512051H432.495V12.3521H430.655V11.0241C430.356 11.4507 429.94 11.8027 429.407 12.0801C428.884 12.3574 428.282 12.4961 427.599 12.4961C426.831 12.4961 426.127 12.3041 425.487 11.9201C424.858 11.5254 424.356 10.9814 423.983 10.2881C423.62 9.58405 423.439 8.78938 423.439 7.90405ZM430.655 7.93605C430.655 7.32805 430.527 6.80005 430.271 6.35205C430.026 5.90405 429.7 5.56272 429.295 5.32805C428.89 5.09338 428.452 4.97605 427.983 4.97605C427.514 4.97605 427.076 5.09338 426.671 5.32805C426.266 5.55205 425.935 5.88805 425.679 6.33605C425.434 6.77338 425.311 7.29605 425.311 7.90405C425.311 8.51205 425.434 9.04538 425.679 9.50405C425.935 9.96272 426.266 10.3147 426.671 10.5601C427.087 10.7947 427.524 10.9121 427.983 10.9121C428.452 10.9121 428.89 10.7947 429.295 10.5601C429.7 10.3254 430.026 9.98405 430.271 9.53605C430.527 9.07738 430.655 8.54405 430.655 7.93605ZM441.175 5.02405V9.90405C441.175 10.2347 441.25 10.4747 441.399 10.6241C441.559 10.7627 441.826 10.8321 442.199 10.8321H443.319V12.3521H441.879C441.058 12.3521 440.428 12.1601 439.991 11.7761C439.554 11.3921 439.335 10.7681 439.335 9.90405V5.02405H438.295V3.53605H439.335V1.34405H441.175V3.53605H443.319V5.02405H441.175ZM452.936 3.53605L447.528 16.4961H445.64L447.432 12.2081L443.96 3.53605H445.992L448.472 10.2561L451.048 3.53605H452.936ZM456.137 4.83205C456.446 4.42672 456.867 4.08538 457.401 3.80805C457.934 3.53072 458.537 3.39205 459.209 3.39205C459.977 3.39205 460.675 3.58405 461.305 3.96805C461.945 4.34138 462.446 4.86938 462.809 5.55205C463.171 6.23472 463.353 7.01872 463.353 7.90405C463.353 8.78938 463.171 9.58405 462.809 10.2881C462.446 10.9814 461.945 11.5254 461.305 11.9201C460.675 12.3041 459.977 12.4961 459.209 12.4961C458.537 12.4961 457.939 12.3627 457.417 12.0961C456.894 11.8187 456.467 11.4774 456.137 11.0721V16.5441H454.313V3.53605H456.137V4.83205ZM461.497 7.90405C461.497 7.29605 461.369 6.77338 461.113 6.33605C460.867 5.88805 460.537 5.55205 460.121 5.32805C459.715 5.09338 459.278 4.97605 458.809 4.97605C458.35 4.97605 457.913 5.09338 457.497 5.32805C457.091 5.56272 456.761 5.90405 456.505 6.35205C456.259 6.80005 456.137 7.32805 456.137 7.93605C456.137 8.54405 456.259 9.07738 456.505 9.53605C456.761 9.98405 457.091 10.3254 457.497 10.5601C457.913 10.7947 458.35 10.9121 458.809 10.9121C459.278 10.9121 459.715 10.7947 460.121 10.5601C460.537 10.3147 460.867 9.96272 461.113 9.50405C461.369 9.04538 461.497 8.51205 461.497 7.90405ZM473.236 7.72805C473.236 8.05872 473.215 8.35738 473.172 8.62405H466.436C466.49 9.32805 466.751 9.89338 467.22 10.3201C467.69 10.7467 468.266 10.9601 468.948 10.9601C469.93 10.9601 470.623 10.5494 471.028 9.72805H472.996C472.73 10.5387 472.244 11.2054 471.54 11.7281C470.847 12.2401 469.983 12.4961 468.948 12.4961C468.106 12.4961 467.348 12.3094 466.676 11.9361C466.015 11.5521 465.492 11.0187 465.108 10.3361C464.735 9.64272 464.548 8.84272 464.548 7.93605C464.548 7.02938 464.73 6.23472 465.092 5.55205C465.466 4.85872 465.983 4.32538 466.644 3.95205C467.316 3.57872 468.084 3.39205 468.948 3.39205C469.78 3.39205 470.522 3.57338 471.172 3.93605C471.823 4.29872 472.33 4.81072 472.692 5.47205C473.055 6.12272 473.236 6.87472 473.236 7.72805ZM471.332 7.15205C471.322 6.48005 471.082 5.94138 470.612 5.53605C470.143 5.13072 469.562 4.92805 468.868 4.92805C468.239 4.92805 467.7 5.13072 467.252 5.53605C466.804 5.93072 466.538 6.46938 466.452 7.15205H471.332ZM478.231 12.4961C477.538 12.4961 476.914 12.3734 476.359 12.1281C475.815 11.8721 475.383 11.5307 475.063 11.1041C474.743 10.6667 474.573 10.1814 474.551 9.64805H476.439C476.471 10.0214 476.647 10.3361 476.967 10.5921C477.298 10.8374 477.709 10.9601 478.199 10.9601C478.711 10.9601 479.106 10.8641 479.383 10.6721C479.671 10.4694 479.815 10.2134 479.815 9.90405C479.815 9.57338 479.655 9.32805 479.335 9.16805C479.026 9.00805 478.53 8.83205 477.847 8.64005C477.186 8.45872 476.647 8.28272 476.231 8.11205C475.815 7.94138 475.453 7.68005 475.143 7.32805C474.845 6.97605 474.695 6.51205 474.695 5.93605C474.695 5.46672 474.834 5.04005 475.111 4.65605C475.389 4.26138 475.783 3.95205 476.295 3.72805C476.818 3.50405 477.415 3.39205 478.087 3.39205C479.09 3.39205 479.895 3.64805 480.503 4.16005C481.122 4.66138 481.453 5.34938 481.495 6.22405H479.671C479.639 5.82938 479.479 5.51472 479.191 5.28005C478.903 5.04538 478.514 4.92805 478.023 4.92805C477.543 4.92805 477.175 5.01872 476.919 5.20005C476.663 5.38138 476.535 5.62138 476.535 5.92005C476.535 6.15472 476.621 6.35205 476.791 6.51205C476.962 6.67205 477.17 6.80005 477.415 6.89605C477.661 6.98138 478.023 7.09338 478.503 7.23205C479.143 7.40272 479.666 7.57872 480.071 7.76005C480.487 7.93072 480.845 8.18672 481.143 8.52805C481.442 8.86938 481.597 9.32272 481.607 9.88805C481.607 10.3894 481.469 10.8374 481.191 11.2321C480.914 11.6267 480.519 11.9361 480.007 12.1601C479.506 12.3841 478.914 12.4961 478.231 12.4961ZM491.658 7.72805C491.658 8.05872 491.637 8.35738 491.594 8.62405H484.858C484.912 9.32805 485.173 9.89338 485.642 10.3201C486.112 10.7467 486.688 10.9601 487.37 10.9601C488.352 10.9601 489.045 10.5494 489.45 9.72805H491.418C491.152 10.5387 490.666 11.2054 489.962 11.7281C489.269 12.2401 488.405 12.4961 487.37 12.4961C486.528 12.4961 485.77 12.3094 485.098 11.9361C484.437 11.5521 483.914 11.0187 483.53 10.3361C483.157 9.64272 482.97 8.84272 482.97 7.93605C482.97 7.02938 483.152 6.23472 483.514 5.55205C483.888 4.85872 484.405 4.32538 485.066 3.95205C485.738 3.57872 486.506 3.39205 487.37 3.39205C488.202 3.39205 488.944 3.57338 489.594 3.93605C490.245 4.29872 490.752 4.81072 491.114 5.47205C491.477 6.12272 491.658 6.87472 491.658 7.72805ZM489.754 7.15205C489.744 6.48005 489.504 5.94138 489.034 5.53605C488.565 5.13072 487.984 4.92805 487.29 4.92805C486.661 4.92805 486.122 5.13072 485.674 5.53605C485.226 5.93072 484.96 6.46938 484.874 7.15205H489.754ZM495.581 5.02405V9.90405C495.581 10.2347 495.656 10.4747 495.805 10.6241C495.965 10.7627 496.232 10.8321 496.605 10.8321H497.725V12.3521H496.285C495.464 12.3521 494.835 12.1601 494.397 11.7761C493.96 11.3921 493.741 10.7681 493.741 9.90405V5.02405H492.701V3.53605H493.741V1.34405H495.581V3.53605H497.725V5.02405H495.581ZM501.534 5.02405V9.90405C501.534 10.2347 501.609 10.4747 501.758 10.6241C501.918 10.7627 502.185 10.8321 502.558 10.8321H503.678V12.3521H502.238C501.417 12.3521 500.788 12.1601 500.35 11.7761C499.913 11.3921 499.694 10.7681 499.694 9.90405V5.02405H498.654V3.53605H499.694V1.34405H501.534V3.53605H503.678V5.02405H501.534ZM506.287 2.36805C505.957 2.36805 505.679 2.25605 505.455 2.03205C505.231 1.80805 505.119 1.53072 505.119 1.20005C505.119 0.869383 505.231 0.59205 505.455 0.368051C505.679 0.14405 505.957 0.0320501 506.287 0.0320501C506.607 0.0320501 506.879 0.14405 507.103 0.368051C507.327 0.59205 507.439 0.869383 507.439 1.20005C507.439 1.53072 507.327 1.80805 507.103 2.03205C506.879 2.25605 506.607 2.36805 506.287 2.36805ZM507.183 3.53605V12.3521H505.359V3.53605H507.183ZM514.026 3.39205C514.72 3.39205 515.338 3.53605 515.882 3.82405C516.437 4.11205 516.869 4.53872 517.178 5.10405C517.488 5.66938 517.642 6.35205 517.642 7.15205V12.3521H515.834V7.42405C515.834 6.63472 515.637 6.03205 515.242 5.61605C514.848 5.18938 514.309 4.97605 513.626 4.97605C512.944 4.97605 512.4 5.18938 511.994 5.61605C511.6 6.03205 511.402 6.63472 511.402 7.42405V12.3521H509.578V3.53605H511.402V4.54405C511.701 4.18138 512.08 3.89872 512.538 3.69605C513.008 3.49338 513.504 3.39205 514.026 3.39205ZM523.521 3.39205C524.203 3.39205 524.806 3.53072 525.329 3.80805C525.862 4.07472 526.278 4.41072 526.577 4.81605V3.53605H528.417V12.4961C528.417 13.3067 528.246 14.0267 527.905 14.6561C527.563 15.2961 527.067 15.7974 526.417 16.1601C525.777 16.5227 525.009 16.7041 524.113 16.7041C522.918 16.7041 521.926 16.4214 521.137 15.8561C520.347 15.3014 519.899 14.5441 519.793 13.5841H521.601C521.739 14.0427 522.033 14.4107 522.481 14.6881C522.939 14.9761 523.483 15.1201 524.113 15.1201C524.849 15.1201 525.441 14.8961 525.889 14.4481C526.347 14.0001 526.577 13.3494 526.577 12.4961V11.0241C526.267 11.4401 525.846 11.7921 525.313 12.0801C524.79 12.3574 524.193 12.4961 523.521 12.4961C522.753 12.4961 522.049 12.3041 521.409 11.9201C520.779 11.5254 520.278 10.9814 519.905 10.2881C519.542 9.58405 519.361 8.78938 519.361 7.90405C519.361 7.01872 519.542 6.23472 519.905 5.55205C520.278 4.86938 520.779 4.34138 521.409 3.96805C522.049 3.58405 522.753 3.39205 523.521 3.39205ZM526.577 7.93605C526.577 7.32805 526.449 6.80005 526.193 6.35205C525.947 5.90405 525.622 5.56272 525.217 5.32805C524.811 5.09338 524.374 4.97605 523.905 4.97605C523.435 4.97605 522.998 5.09338 522.593 5.32805C522.187 5.55205 521.857 5.88805 521.601 6.33605C521.355 6.77338 521.233 7.29605 521.233 7.90405C521.233 8.51205 521.355 9.04538 521.601 9.50405C521.857 9.96272 522.187 10.3147 522.593 10.5601C523.009 10.7947 523.446 10.9121 523.905 10.9121C524.374 10.9121 524.811 10.7947 525.217 10.5601C525.622 10.3254 525.947 9.98405 526.193 9.53605C526.449 9.07738 526.577 8.54405 526.577 7.93605ZM535.897 2.36805C535.566 2.36805 535.289 2.25605 535.065 2.03205C534.841 1.80805 534.729 1.53072 534.729 1.20005C534.729 0.869383 534.841 0.59205 535.065 0.368051C535.289 0.14405 535.566 0.0320501 535.897 0.0320501C536.217 0.0320501 536.489 0.14405 536.713 0.368051C536.937 0.59205 537.049 0.869383 537.049 1.20005C537.049 1.53072 536.937 1.80805 536.713 2.03205C536.489 2.25605 536.217 2.36805 535.897 2.36805ZM536.793 3.53605V12.3521H534.969V3.53605H536.793ZM543.636 3.39205C544.329 3.39205 544.948 3.53605 545.492 3.82405C546.046 4.11205 546.478 4.53872 546.788 5.10405C547.097 5.66938 547.252 6.35205 547.252 7.15205V12.3521H545.444V7.42405C545.444 6.63472 545.246 6.03205 544.852 5.61605C544.457 5.18938 543.918 4.97605 543.236 4.97605C542.553 4.97605 542.009 5.18938 541.604 5.61605C541.209 6.03205 541.012 6.63472 541.012 7.42405V12.3521H539.188V3.53605H541.012V4.54405C541.31 4.18138 541.689 3.89872 542.148 3.69605C542.617 3.49338 543.113 3.39205 543.636 3.39205ZM548.97 7.90405C548.97 7.01872 549.152 6.23472 549.514 5.55205C549.888 4.86938 550.389 4.34138 551.018 3.96805C551.658 3.58405 552.368 3.39205 553.146 3.39205C553.722 3.39205 554.288 3.52005 554.842 3.77605C555.408 4.02138 555.856 4.35205 556.186 4.76805V0.512051H558.026V12.3521H556.186V11.0241C555.888 11.4507 555.472 11.8027 554.938 12.0801C554.416 12.3574 553.813 12.4961 553.13 12.4961C552.362 12.4961 551.658 12.3041 551.018 11.9201C550.389 11.5254 549.888 10.9814 549.514 10.2881C549.152 9.58405 548.97 8.78938 548.97 7.90405ZM556.186 7.93605C556.186 7.32805 556.058 6.80005 555.802 6.35205C555.557 5.90405 555.232 5.56272 554.826 5.32805C554.421 5.09338 553.984 4.97605 553.514 4.97605C553.045 4.97605 552.608 5.09338 552.202 5.32805C551.797 5.55205 551.466 5.88805 551.21 6.33605C550.965 6.77338 550.842 7.29605 550.842 7.90405C550.842 8.51205 550.965 9.04538 551.21 9.50405C551.466 9.96272 551.797 10.3147 552.202 10.5601C552.618 10.7947 553.056 10.9121 553.514 10.9121C553.984 10.9121 554.421 10.7947 554.826 10.5601C555.232 10.3254 555.557 9.98405 555.802 9.53605C556.058 9.07738 556.186 8.54405 556.186 7.93605ZM568.406 3.53605V12.3521H566.582V11.3121C566.294 11.6747 565.915 11.9627 565.446 12.1761C564.987 12.3787 564.497 12.4801 563.974 12.4801C563.281 12.4801 562.657 12.3361 562.102 12.0481C561.558 11.7601 561.126 11.3334 560.806 10.7681C560.497 10.2027 560.342 9.52005 560.342 8.72005V3.53605H562.15V8.44805C562.15 9.23738 562.347 9.84538 562.742 10.2721C563.137 10.6881 563.675 10.8961 564.358 10.8961C565.041 10.8961 565.579 10.6881 565.974 10.2721C566.379 9.84538 566.582 9.23738 566.582 8.44805V3.53605H568.406ZM574.013 12.4961C573.319 12.4961 572.695 12.3734 572.141 12.1281C571.597 11.8721 571.165 11.5307 570.845 11.1041C570.525 10.6667 570.354 10.1814 570.333 9.64805H572.221C572.253 10.0214 572.429 10.3361 572.749 10.5921C573.079 10.8374 573.49 10.9601 573.981 10.9601C574.493 10.9601 574.887 10.8641 575.165 10.6721C575.453 10.4694 575.597 10.2134 575.597 9.90405C575.597 9.57338 575.437 9.32805 575.117 9.16805C574.807 9.00805 574.311 8.83205 573.629 8.64005C572.967 8.45872 572.429 8.28272 572.013 8.11205C571.597 7.94138 571.234 7.68005 570.925 7.32805C570.626 6.97605 570.477 6.51205 570.477 5.93605C570.477 5.46672 570.615 5.04005 570.893 4.65605C571.17 4.26138 571.565 3.95205 572.077 3.72805C572.599 3.50405 573.197 3.39205 573.869 3.39205C574.871 3.39205 575.677 3.64805 576.285 4.16005C576.903 4.66138 577.234 5.34938 577.277 6.22405H575.453C575.421 5.82938 575.261 5.51472 574.973 5.28005C574.685 5.04538 574.295 4.92805 573.805 4.92805C573.325 4.92805 572.957 5.01872 572.701 5.20005C572.445 5.38138 572.317 5.62138 572.317 5.92005C572.317 6.15472 572.402 6.35205 572.573 6.51205C572.743 6.67205 572.951 6.80005 573.197 6.89605C573.442 6.98138 573.805 7.09338 574.285 7.23205C574.925 7.40272 575.447 7.57872 575.853 7.76005C576.269 7.93072 576.626 8.18672 576.925 8.52805C577.223 8.86938 577.378 9.32272 577.389 9.88805C577.389 10.3894 577.25 10.8374 576.973 11.2321C576.695 11.6267 576.301 11.9361 575.789 12.1601C575.287 12.3841 574.695 12.4961 574.013 12.4961ZM581.487 5.02405V9.90405C581.487 10.2347 581.562 10.4747 581.711 10.6241C581.871 10.7627 582.138 10.8321 582.511 10.8321H583.631V12.3521H582.191C581.37 12.3521 580.741 12.1601 580.303 11.7761C579.866 11.3921 579.647 10.7681 579.647 9.90405V5.02405H578.607V3.53605H579.647V1.34405H581.487V3.53605H583.631V5.02405H581.487ZM587.137 4.81605C587.403 4.36805 587.755 4.02138 588.193 3.77605C588.641 3.52005 589.169 3.39205 589.777 3.39205V5.28005H589.313C588.598 5.28005 588.054 5.46138 587.681 5.82405C587.318 6.18672 587.137 6.81605 587.137 7.71205V12.3521H585.313V3.53605H587.137V4.81605ZM599.389 3.53605L593.981 16.4961H592.093L593.885 12.2081L590.413 3.53605H592.445L594.925 10.2561L597.501 3.53605H599.389ZM601.502 12.4641C601.171 12.4641 600.894 12.3521 600.67 12.1281C600.446 11.9041 600.334 11.6267 600.334 11.2961C600.334 10.9654 600.446 10.6881 600.67 10.4641C600.894 10.2401 601.171 10.1281 601.502 10.1281C601.822 10.1281 602.094 10.2401 602.318 10.4641C602.542 10.6881 602.654 10.9654 602.654 11.2961C602.654 11.6267 602.542 11.9041 602.318 12.1281C602.094 12.3521 601.822 12.4641 601.502 12.4641Z" fill="white"/>
</svg>
